<?xml version="1.0" encoding="UTF-8" standalone="no"?>
<!DOCTYPE svg PUBLIC "-//W3C//DTD SVG 1.1//EN" "http://www.w3.org/Graphics/SVG/1.1/DTD/svg11.dtd">
<svg version="1.1" xmlns:dc="http://purl.org/dc/elements/1.1/" xmlns="http://www.w3.org/2000/svg" xmlns:xl="http://www.w3.org/1999/xlink" viewBox="0 0 5 5" width="5" height="5">
  <defs/>
  <metadata> Produced by OmniGraffle 7.24\n2024-10-11 19:17:57 +0000</metadata>
  <g id="D_Clef" stroke-dasharray="none" fill="none" fill-opacity="1" stroke="none" stroke-opacity="1">
    <title>D Clef</title>
    <g id="D_Clef_D_Clef">
      <title>D Clef</title>
      <g id="Graphic_46">
        <title>path3463</title>
        <path d="M 2.5 1.6428573 C 2.5913646 2.0238097 2.6827293 2.214286 2.9568233 2.5000003 L 2.4543177 2.5000003 L 2.2715883 2.1190478 C 1.9974943 2.5000003 1.1752125 2.309524 1.1752125 1.7380954 L 1.1752125 1.0714286 C 1.1752125 .78571425 .9924831 .6904761 .8097538 .6904761 L .8097538 .5 L 2.088859 .5 C 3.6512114 .4999999 4.190246 1.3101103 4.190246 2.5000003 C 4.190246 3.6627073 3.556661 4.5 2.088859 4.5 L .8097538 4.5 L .8097538 4.309524 C .9924831 4.309524 1.1752125 4.210671 1.1752125 3.928572 L 1.1752125 3.2619052 C 1.1752125 2.6904765 1.9974943 2.5000003 2.2715883 2.8809527 L 2.4543177 2.5000003 L 2.9568233 2.5000003 C 2.6827293 2.7857145 2.5913646 2.976191 2.5 3.3571433 C 2.5 2.976191 1.6320357 2.5952384 1.6320357 3.071429 L 1.6320357 3.928572 C 1.6320357 4.119048 1.814765 4.309524 2.088859 4.309524 C 3.1710866 4.309524 3.5506935 3.634745 3.5506935 2.5000003 C 3.5506935 1.4210123 3.185235 .6904761 2.088859 .6904761 C 1.814765 .6904761 1.6320357 .8809523 1.6320357 1.0714286 L 1.6320357 1.9285716 C 1.6320357 2.4047622 2.5 2.0238097 2.5 1.6428573" fill="black"/>
      </g>
    </g>
  </g>
</svg>
